<svg xmlns="http://www.w3.org/2000/svg" viewBox="0 0 1143 1021" class="tripmap" role="img" data-proj="-76.0,7.0,23.2,0.9659258262890683,-47.0,-42.85,-22.45,-24.2,636,786,129.50883237148406,0.9191353392552344,494,227" aria-label="Karte der Reiseroute durch Brasilien: Guarujá, Rio de Janeiro, Foz do Iguaçu, Manaus, Paraty, Ilha Grande">
<style>
.sea{fill:#dfeef0}.land{fill:#eef0ea;stroke:#c9cfc4;stroke-width:.8}.br{fill:#f7f3dc;stroke:#1d6b55;stroke-width:1.4}
.fl{fill:none;stroke:#0d4f7a;stroke-width:2.6;stroke-dasharray:7 6;stroke-linecap:round}
.fl2{stroke-width:2;opacity:.6}
.fl.open{stroke:#d9822b}.flB{stroke:#8a4fbf}.ahO{fill:#d9822b}.ahB{fill:#8a4fbf}
.hit{fill:transparent}
.ht{paint-order:stroke;stroke:#e1eef0;stroke-width:5px;stroke-linejoin:round}
.gr{fill:none;stroke:#1d6b55;stroke-width:3.2;stroke-linecap:round}
.bt{fill:none;stroke:#1d8aa8;stroke-width:3;stroke-dasharray:2 5;stroke-linecap:round}
.dot{fill:#1d6b55;stroke:#fff;stroke-width:2.5}.dot2{fill:#fff;stroke:#0d4f7a;stroke-width:2}
.num{fill:#fff;font:700 15px 'DejaVu Sans',sans-serif;text-anchor:middle;dominant-baseline:central}
.lbl{fill:#10231d;font:700 19px 'DejaVu Sans',sans-serif}.sub{fill:#4b5d56;font:500 14px 'DejaVu Sans',sans-serif}
.tag{fill:#0d4f7a;font:600 13px 'DejaVu Sans Mono',monospace}.ctry{fill:#8a968f;font:600 13px 'DejaVu Sans',sans-serif;letter-spacing:3px}
.frame{fill:none;stroke:#10231d;stroke-width:1.5}.framebg{fill:#dfeef0;stroke:#10231d;stroke-width:1.5}
.lead{fill:none;stroke:#10231d;stroke-width:1;stroke-dasharray:3 3}
.head{fill:#10231d;font:700 34px 'DejaVu Sans',sans-serif}.headsub{fill:#4b5d56;font:500 17px 'DejaVu Sans',sans-serif}
.legtxt{fill:#10231d;font:500 14px 'DejaVu Sans',sans-serif}.legbg{fill:#ffffff;fill-opacity:.85;stroke:#c9cfc4}
.arrowhead{fill:#0d4f7a}.halo{display:none}
</style>
<defs><marker id="arr" viewBox="0 0 10 10" refX="8" refY="5" markerUnits="userSpaceOnUse" markerWidth="13" markerHeight="13" orient="auto-start-reverse"><path d="M0,0L10,5L0,10z" class="arrowhead"/></marker><marker id="arrO" viewBox="0 0 10 10" refX="8" refY="5" markerUnits="userSpaceOnUse" markerWidth="13" markerHeight="13" orient="auto-start-reverse"><path d="M0,0L10,5L0,10z" class="ahO"/></marker><marker id="arrB" viewBox="0 0 10 10" refX="8" refY="5" markerUnits="userSpaceOnUse" markerWidth="12" markerHeight="12" orient="auto-start-reverse"><path d="M0,0L10,5L0,10z" class="ahB"/></marker><clipPath id="clipMain"><rect width="1143" height="1021"/></clipPath><clipPath id="clipIn"><rect x="636" y="786" width="494" height="227"/></clipPath></defs>
<rect class="sea" width="1143" height="1021"/>
<g clip-path="url(#clipMain)"><path class="land" d="M358.2,-8l-15.8,0l2.2,0l-0.2,3.1l1.1,1.3l4.3-0.2l1.5,0.7l-0.6,3l-1,1.4l-7.2,4.1l-3.5-0.5l-1.5,1.3l-4.6,0.9l-1.3,2.4l1.7,8.7l-5.9,6.4l14.5,17.1l1.6,0.9l1.5,3.9l-1.7,3.9l-5.1,3.3l-2.1,3.5l-2.3,0.7l-3.9-0.3l-2,2l-2.5,0.7l-1.7,2.6l-6,2.1l-7.4,2.3l-5.8-1.3l-6.7,3.2l-1.2,8l-2.1,1.8l-2.5,0l-8.3-8.1l-4.2,1.2l-2.8-1.1l-8.3,0.2l-3.8-4.5l-8.6-0.3l-3.3-3.2l-1.5,0l-0.6,1l3.3,5.1l10.1,9.9l0,8.9l4.7,12.3l-0.8,3.9l2.7,1.2l12,0.9l-0.1,4.4l-1.6,2l-12.2,4.8l-2.4,7.2l-2,2.1l-2.2,1.7l-4.1,0.1l-5.5,4.6l-1.9-0.1l-4.7,2.3l-7.5,6.7l-2.5,4.2l-1.9,0l0.8-3.6l-1-1.9l-1.7-1l-3.8,0.8l-5.6,3.5l-5.4,0.8l-2.8-1.7l-10-9.3l-2.5-10.6l-5.1-13.8l0.1-2.7l-8-6.9l-1.2-2.4l-3.3-0.9l-2.1,0.9l0.6-2.3l10.8-10l0.9-2.1l-7.8-10.5l-2.8-7.7l-0.7-6l-0.9-1.2l1.2-14.5l-0.5-3.2l0.8-2.4l2.1-1.7l1.2-2.6l0.2-3.5l1.3-2.8l2.3-2.3l0.7-2.2l-0.9-3.6l-1.9-1.4l-6.6-1.1l-1.8,1.1l-11.9,2l-5.9,0l-4.5-1l-3.4,0.3l-4,2l-2-1.1l-1.6,0.5l-15.7-19.2l-5.8-0.5l-7.9-2.7l-6.2,2.2l-13.6-0.9l-6.1,1l-4.3-2.4l-2.7-5.8l-26,0ZM507.1,945.2l-2.3,2.5l-1.4,3.9l-4.6,5.4l-1,3l-5,3.2l-3.6,3.6l-2.3-0.1l-2.1,1.5l-12,4.6l-7.5-0.8l-3-2.1l-6.8-0.7l-10,3.1l-2.9-0.2l-3.1-0.9l-1.7-2l-8.8-2.3l-7-5.2l-14.8,0.6l-1-0.7l-2-3.3l-9.8-9.1l-0.8-4.5l1.6-12.5l3.2-1.2l2.9-3.8l0.2-1.7l-2.6-9.8l1.8-5.1l-1-1.5l-0.6-6.1l3.3-3.6l1.2-3.4l-1.4-2.9l3.6-7l0.5-2.1l-0.7-3l2-2.7l-0.2-3.4l-1.2-2.8l1-2.2l4-4.7l0.1-1.5l0.8-0.9l1.3,1.7l7.6,0.5l2.1-3.2l6.4-0.9l14.7,12.1l3,3.4l1,1.4l-0.1,5.6l4.4-0.9l4.6-4.4l5.3,4.6l2.5,4.1l1.8,1.3l1.9,0.8l1.2-0.8l3.1,2.6l6.9,2.2l4.9,6l3.4,2.5l6.7,2.3l3.5,2.4l3.6,8.1l5.4,4.1l2.9,1l2.4,2.6l-8,7.7l-1.1,2.4l0,11.2ZM489.5,38.1l-6.6,8l-0.6,4.1l1.2,5.9l-0.6,2.2l1.2,6.6l1.2,1.5l-0.2,1.9l8.1,10.8l-0.4,3.3l-4.3,7.2l0.7,3.3l-0.6,4.1l-4.6,8.3l-3,2.7l-2.8,0.4l-1.4-2.6l-3.4-0.2l-2.3-3.5l-8.2,2.6l-0.9,1.1l-7.8,0.8l-5.1-2.7l-4,6.1l1.4,0.5l3.6,4.6l-0.3,3.5l-0.8,0.7l-11-1.7l-2.4-1.7l-3.2-0.7l-5.1-8.4l-3.9-8.6l-2-2l-2.4-12.1l-5.5,0.5l-2.2-1l-0.1-2.8l-4.1-3.7l-1.7-4.2l-2.8-3.3l-0.5-4l2.4-4.1l2.3-7.4l-1.6-3.5l0.8-1.4l3.8-2.6l6.7-0.3l2.4-1l-0.1-1.4l2.3-2.5l-1.6-0.7l-0.9-2.1l1.6-3.5l1.5-1l2.8-9.5l2-1.2l16.4,2.5l6.6,2l1,2.3l-0.3-4.5l1.8-1.6l22.3-0.6l10.7,1.8l6.8,2.4l0.2,4.6ZM135.2,260.7l-0.1,1.5l-1.8,0.7l-1.7-1.1l-2.5,0.4l-3.7-3.5l-8.9,0.5l-3.9,4.1l-19.5,3.6l-11.4,6.5l-7.7,6.6l-4.2,1.2l-2.1,11.9l-5.8,10.8l2.3,5.7l0,2.8l-2.4,2.3l-1.9,0.2l-3.9,2.5l-5.8,5.2l-1,4.1l1.9,5.3l-5.5,1.6l0.1,3l-0.9,1.1l4,4.2l2.3,1.1l-1.3,3.5l3,3.2l2.1,6.3l4.3,3.1l0,2.1l1.3,2l2.2,1.5l5.1,6.3l0.1,3l-5.4,6.7l8.9,0l9.7,2.3l1.4,1.1l1.3,5.1l2,1.6l-0.2,3.7l12.8,0l8.3-0.9l13.5-11.3l2.1-1l-1.1,2.5l0.5,3.7l-1.5,2.8l-0.1,27.5l2.4-1.4l3.2,2.6l2.2,0.1l7.4-3.1l8.6,0.5l20,35.9l-1.7,2.5l0.1,1.8l-5,4.5l-0.1,14.3l-2,4.3l4.6,11.3l-3,2.2l-0.2,2.7l-5,5.1l-0.9,3.4l-1.9,1.2l-0.3,3.8l4.5,6.4l-2.9,3.8l-2.7,5.6l4.6,11.8l1.9,1.6l4.9,1l1.6,1.7l-4.3,3.2l0.3,3.9l-4,2.9l-5.4,7.5l-4.1,2.5l-0.5,1.2l2.8,3.2l0.2,2.7l-3.9,3.4l-3.7,1.2l1.1,6.7l-2.8,5l-5.8,2.7l-5.2,0.5l-11.7-9.6l-8.9-5.8l-2.2-7.3l-15.2-8.4l-7.9-6.9l-7.4-2.1l-13.5-7.2l-7.4-2.4l-9.4-6.7l-5-1.9l-4.1-3.1l-12.3-6.6l-9.6-11.9l-9-6.2l-5.4-9.4l-2.6-2.2l-0.2-4.3l-1.3-2l2.2-1.4l1.7-6.6l-3.9-9.4l0-250.1l6-4.6l11.6-14l3.7-14.1l1.3,1l2.2-0.3l-0.7-5.7l0.4-3.5l-3.6-3.4l-1.5-3.7l-3.2-2.1l0.2-0.8l3.3,0.7l3.1-0.3l2.6-2.3l1.9,0.2l4.3,3.2l3.3,0.2l1,2.3l3.1,1.7l3.4,3.4l2.9,7.7l2,2.8l4.3,1.4l4.3,3.9l4.4,1.2l3.2,4.6l0.6,5.7l3.3,2.1l2.8,0.1l0.6,1l1.6,5.8l-1,2.9l0.4,1.7l3.7,1.4l1,1.2l3,0.3l4.1-1.2l5.2,1.8l3.9-0.7l5.3-1.7l5.2-4.1l4.3,1.7l3.7,2.6l4.4-0.5l1.9-1.6l3.3-0.9l5.8,3.1l1.3,1.5l12.4,5.9l0.5,2.1l-14.8,23.9l4.6,2l4.2-1.2l2.3,1.6l1.6,3.9ZM399.8,630.2l0.8,3l2.7,4l0.5,4.4l1.5,0.8l0.3,4.3l1.6,2.9l0,3.1l-1.4,3.9l0.4,1.2l-1.6,3.3l0.6,4.7l-0.3,4.9l-1.2,3.2l0.7,1.4l3,0.8l2.2-1l3.4,1.9l5.4,0.8l2-0.5l6.8,1.8l6.8-0.9l2.5-3l1.7-0.6l1.1,0.4l3.4,3.9l8.9,1l2.1,2.4l1.1,4.2l2,1.9l-0.8,5l3,12.2l-0.5,3.9l1.8,2.4l1,6.2l1.1,0.9l3.8,0.6l4.8-1l8-3.7l8.6,5.4l-1.7,1.9l0.8,4.1l-3.9,17.6l0.4,1.3l-3.9,7.2l-0.5,13.3l-1,7.1l-1.7,5.2l-1.6,2.7l-2.4,1.2l-4.4,4.3l-0.1,1l-6.6,1.8l-1.5,2.5l-1.6,0.8l-1.5,4.8l-1.8,1.3l-1.7,0.1l-3.6-2.1l-4.8-0.1l-3.3,2.7l-1.3,2.3l-1.5,0.3l-1.7-1.5l-2-0.4l-2.5,0.6l-5.8-1.4l-3.1,0.8l-23.7-4.6l-9.8,1l-0.8-2.8l0.5-1.4l4.1-4.9l2.5-1.5l-0.2-0.8l3.2-4.5l-0.3-5.8l2.1-4.6l4.9-4l3.1-7.2l4.1-3.8l-0.4-3l-1.2-1.8l-4-4.4l-3.1-2.1l-4-1.6l-5.1-0.4l-3.5-2.7l-4.6-1.4l-10.3-5.2l-15.8-10.8l-4.9-2l-8.9-1l-7.5-2.5l-4.3-2.4l-1.2-2.3l-2.7-2.3l-13.3-8.7l-6-7.2l-3.3-6l-3.5-4l-5.7-3.5l-0.6-1.3l8.4-27.1l0-11.7l8.1-11.7l3.6-9.5l39.2-8.1l20.5-0.3l20.4,12.4l0.9,4.2ZM341.9,41.7l-14.5-17.1l5.9-6.4l-1.7-8.7l1.3-2.4l4.6-0.9l1.5-1.3l3.5,0.5l7.2-4.1l1-1.4l0.6-3l-1.5-0.7l-4.3,0.2l-1.1-1.3l0.2-3.1l-2.2,0l50.3,0.4l-0.1,6.7l-2.3,4.5l-0.7,7.9l-1.3,2.6l1.8-1.4l0.5-4.1l3.5-5.1l2.6-0.7l7.1,2.2l8.4,7.8l1.5,2.7l4.4,1.4l2.6,2.2l0.8,1.8l0.5,5l-0.6,7.8l-2.8,4.9l2.5,3.3l-2.3,2l-0.4,2l-8.6,0.7l-3.8,2.6l-0.8,1.4l1.6,3.5l-2.3,7.4l-2.4,4.1l0.1,1.6l0.4,2.4l2.8,3.3l1.7,4.2l4.1,3.7l0.1,2.8l2.2,1l5.5-0.5l2.4,12.1l2,2l3.9,8.6l5.1,8.4l3.2,0.7l1.8,1.4l-8,1.5l-3.8-1l-2.5-2.1l-4.4,1.1l-2.2,1.3l-2.9,4.3l-9.8,1.8l-1.2,2.9l-2.4,0.1l-4.5-1.6l-1.2,2.4l-2.5,1l-0.1,3.6l-3.9,0.1l-3,1.8l-3.3-2.4l-5.9-1.6l-6.8-7.5l-3-1.1l0-2.2l-2-1.4l0-8.7l-3-2l-2.3-7.6l0.5-7l3.1-8.3l-0.5-5.5l3.9-2.6l2.9-5.5l-4.2-6.8l0.8-3.5l-2.9-2.2l-7.1-1.4l2.6-4.8l1-7.9l-3.4-3.6l-2.3-0.5l-2.1,1.4l-2.7,0.2l-4.3-0.7ZM479.2,108.4l1.8-0.4l3-2.7l4.6-8.3l0.6-4.1l-0.7-3.3l4.3-7.2l0.4-3.3l-8.1-10.8l0.2-1.9l-1.2-1.5l-1.2-6.6l0.6-2.2l-1.1-7.7l0.5-2.3l2.7-4l5.5-5.3l2.1-6.1l1.6-2.1l1.6-0.3l8.8,5l4.2,0.5l8.3,2.7l10,9.4l3.6,1.8l-0.7,4l2.3-2.1l3.6,3.4l2.2,4.7l-0.9,3.7l1.6-1.9l1.1-4.6l1.2,0l3.6,9.4l0.3,3.9l-2.6,1.6l-1.3,2.8l-3.7,3.9l-3.8,7.8l-3.7,4.3l-5.2,14.1l-3.2,4.9l-3.8,2.2l-0.7,1.3l-2.4,0.7l-4.9-0.6l-2.4-3.1l-3.9,2l-5-1.3l-0.8-1l-8.1,5.4l-6.8-2ZM16,164.9l-4.3,1.1l-3.3-0.7l-0.2,0.8l3.2,2.1l1.5,3.7l3.6,3.4l-0.4,3.5l0.7,5.7l-2.2,0.3l-1.3-1l-3.7,14.1l-11.6,14l-6,4.6l0,61.7l0-149.6l0,28.3l0-3.9l1-1l0.9,0.2l4.6,2.2l6.5,5.9l3.6,0.6ZM104.9,-8l-45.9,0l26,0l2.7,5.8l4.3,2.4l6.1-1l13.6,0.9l6.2-2.2l7.9,2.7l5.8,0.5l15.7,19.2l1.6-0.5l2,1.1l4-2l3.4-0.3l4.5,1l5.9,0l11.9-2l1.8-1.1l6.6,1.1l1.9,1.4l0.9,3.6l-0.7,2.2l-2.3,2.3l-1.3,2.8l-0.2,3.5l-1.2,2.6l-2.1,1.7l-0.8,2.4l0.5,3.2l-1.2,14.5l0.9,1.2l0.7,6l2.8,7.7l7.8,10.5l-0.9,2.1l-10.8,10l-0.6,2.3l2.1-0.9l3.3,0.9l1.2,2.4l8,6.9l-0.1,2.7l2.2,5.2l-0.4,1.2l5.6,14.9l0.2,3.1l-4.7,0.9l-0.8-12l-6.3-9.6l-3.5,1l-5.8,6.6l-2.7,0.9l-2.2-0.9l-2.1-3.9l-1.5-0.7l-1.4,3.3l1.8,2.9l-25.6,0l-5-1.2l-6.8,1.5l-0.1,15l12.1,0.2l3.3,4.4l0.2,4.7l-2.9,0.7l-4.2-2.3l-7.5,2.8l-5.6,0.7l-0.3,16.6l3.3,4.2l6.5,4.4l0.9,3l-0.4,2.9l1.5,3.6l2.1,1.9l1.1,4.5l-12.7,70.6l-4.5-4.3l-1.6-3.9l-2.3-1.6l-4.2,1.2l-4.6-2l14.8-23.9l-0.5-2.1l-12.4-5.9l-1.3-1.5l-5.8-3.1l-3.3,0.9l-1.9,1.6l-4.4,0.5l-3.7-2.6l-4.3-1.7l-5.2,4.1l-5.3,1.7l-3.9,0.7l-5.2-1.8l-4.1,1.2l-3-0.3l-1-1.2l-3.7-1.4l-0.4-1.7l1-2.9l-1.6-5.8l-0.6-1l-2.8-0.1l-3.3-2.1l-0.6-5.7l-3.2-4.6l-4.4-1.2l-4.3-3.9l-4.3-1.4l-2-2.8l-1.8-6.2l-4.5-4.9l-3.1-1.7l-1-2.3l-3.3-0.2l-4.3-3.2l-1.9-0.2l-1.4,1.5l-7.4-4l-3.6-0.6l-6.5-5.9l-4.6-2.2l-0.9-0.2l-1,1l0,3.9l0-164.9ZM125.1,588l5.2-0.5l5.8-2.7l2.8-5l-1.1-6.7l3.7-1.2l3.9-3.4l0.4,2.7l3,3.5l1,4l5,2.5l-1.2,2.1l4,19.2l11.3,10.7l-5.3,6.7l2.7,3.2l0.4,2.5l-0.9,1.8l-3.5,1.1l1.5,5.1l-1.6,2.5l0.4,0.9l5.8,4l-1.7,2.1l0.1,4.2l2.7,1.1l5.4,8.2l0.2,7.4l1.7,3.1l0.8,5.3l1.9,1.7l0.9,6.4l1.5,3.7l0.1,7.7l1.9,1.3l4.8,0.3l8.6-1.6l4.2,4.1l-7.8,24l-20,8.3l-5.8,5.5l-1.2,2.7l0,2.1l2.1,2.1l1.9,3.8l-1.1,1.4l-1.4,0.3l-2.2,5.9l4,17.1l-3.6,4.6l-0.4,2.7l6.1,9.5l0,2.2l-0.6,1.2l-4.3,1.4l-1.2,1.2l-1.3,0.2l-1.3-1l-3.1,1.2l-2.1,5.8l-1.3,1l-3.9,11.1l-5.9,6.2l-1.2,0.2l-3.8,4.9l-3.8,16l-3.7,3.4l-0.7,1.7l2.2,10.3l-0.7,7.2l2.1,1l0.4,1.3l-2.5,4.2l-3.2,0.7l-1.2-0.6l-4.3,12.5l0.8,2.8l-1.7,2.3l-1.9-0.2l-1.1,0.8l-1.5,9.8l3.1,6.3l2.6,0.9l1.8,1.8l-2.5,2.9l1,4.3l1.4,1l0.6,2.8l1.4,0.9l-0.2,3.6l1.4,4.2l2.1,1.8l-1.6,3.3l0.2,4.1l1.4,1.6l2.8-0.5l1.7,0.8l0.5,2.6l-1.9,4.7l-0.3,3.1l1,11.4l-4.5,1.8l-5.3,10l-2.4,9.6l-3.6,2.3l0.5,1.4l1.4,0.5l1.2,4.5l0.8,5.8l-0.8,2.5l0.3,4.2l-1.2,1.7l-2.4,0.3l-3.5,3.2l-0.6,2.5l-3.5,0.6l-3.4,2.5l-0.2,2.7l-2.9,4.7l1.7,6.3l-1.8,4.3l1.4,1.2l-1.1,0l7.6,0l-61.2,0l115,0l-162.8,0l76,0l-37.3,0l17,0l-9.9,0l1.4,0l-1.3-0.3l0.6-2l0.7-1.5l5.1,0.8l3.6-1.3l2.2-11.1l2.5-1.1l2.9-5.8l2.2-9.6l4.3-5.1l-0.8-4l5.3-8l3.6-3.4l3.8-11.1l1.4-7.6l-0.2-2.9l3.8-8l3.8-3.9l0.6-3.1l-1.3-2l-1.1-7.8l3.4-2.9l3.1-7.2l0.7-6.3l-2-4.2l-0.3-9.3l-3.1-14.8l-1-12.5l0.8-6.9l6.1-4.4l1.9-11.4l-0.3-4.8l-0.6-2.2l-2.9-3.5l-0.8-6.3l0.6-1.7l4.2-4.2l0.9-3.8l1.8-3l2.2-13.1l3.6-5.2l0.6-9.4l5.7-19.9l0.2-7.8l-1.7-4.8l1.8-5.5l3.2-4l0.8-2.9l-2.7-14.1l1.5-17.6l2.6-7.4l-2.7-1.9l-1.7-2.7l-0.1-2.6l0.6-4.6l2.6-0.5l2.6-4.3l5.5-31.5l0-5.5l-2.5-12.3l1.2-11.5l-0.3-12.1l-2.6-10.2l-1.9-20.2ZM145.4,568.5l-0.2-2.7l-2.8-3.2l0.5-1.2l4.1-2.5l5.4-7.5l4-2.9l-0.3-3.9l4.3-3.2l-1.6-1.7l-4.9-1l-1.9-1.6l-4.6-11.8l2.7-5.6l2.9-3.8l-4.5-6.4l0.3-3.8l1.9-1.2l0.9-3.4l5-5.1l0.2-2.7l3-2.2l-4.6-11.3l2-4.3l0.1-14.3l5-4.5l-0.1-1.8l1.7-2.5l-20-35.9l7.8,0.1l8.6,1.3l2.7,2.5l2.3-0.3l7-3.1l5.4-6.3l5.3-0.9l2.5,0.4l3.1-4.1l3.7-2.7l6.9-2.8l8.5-6.8l3.5-1.7l14.6-2.7l4.9-0.4l1.5,1l1.8-0.3l1.5-1.5l2.1-0.5l2,3.7l0.2,6.4l-0.3,2.5l-3,5.9l2.7,12l-1.4,5.1l1.5,4.5l3.3,4.8l-0.3,2.4l2.2-0.2l2.2,5.4l3.6,1.3l7.1,5.1l2.1,4.4l10.8,2.1l3.4-1.4l2.2,0.2l7.7,4.7l2.1,0.6l3-1.3l1.1,0.4l1.2,3.2l5.6,4.4l1.7,0l7.5,3.2l5.3,0.6l0.5,1.9l6.8,6.6l6.3,0.4l9.7-1.2l12.8,6.9l2.3,5.3l-1.6,3.9l4,10.1l0.5,10.9l-6.9,0.2l7.6,8.8l1.5,18.3l36.7,1.4l4.3-1l-0.1,4.8l-2.8,4.9l1.8,12.3l9.1,6.5l3.5,0l5.5,14.1l2.1,2.2l-1.8,1.5l-4.7,14.7l1.2,0.1l0.3,2.9l-1.9,0.9l-7.4,15.4l6.1,5.4l-0.6,1l-3,0.8l-1.6,2.2l-1.5,0.3l0.4-3.8l-0.9-4.2l-20.4-12.4l-20.5,0.3l-39.2,8.1l-3.6,9.5l-8.1,11.7l0,11.7l-8.4,27.1l-2.1-1.7l-2.2-3.8l-24.1,0.8l-1.3,1l-6.5,12.3l-1.3,5.2l-6.3-13.9l-8.6-2.8l-17.5-0.2l-7.3-6.1l-2.7-0.8l-3.3,7.2l-7.8,2.4l-1.9,4.5l-5.3,3.3l-0.5,2.3l-3.1,4l-11.5,1.5l-3.8-1.5l-0.1-7.7l-1.5-3.7l-0.9-6.4l-1.9-1.7l-0.8-5.3l-1.7-3.1l-0.2-7.4l-5.4-8.2l-2.7-1.1l-0.1-4.2l1.7-2.1l-5.8-4l-0.4-0.9l1.6-2.5l-1.5-5.1l3.5-1.1l0.9-1.8l-0.4-2.5l-2.7-3.2l5.1-7.2l-11.1-10.2l-4-19.2l1.2-2.1l-5-2.5l-1-4l-3-3.5ZM412.1,862.8l-5.9,9.3l1.2,2.8l0.2,3.4l-2,2.7l0.7,3l-0.5,2.1l-3.6,7l1.4,2.9l-1.2,3.4l-3.3,3.6l0.6,6.1l1,1.5l-2.3,7.3l1.1,9.2l-1.7,2.7l-2.9-0.1l-1,0.9l-2.8,12.8l3.5,12.3l-3,2.4l1.3,3.7l4.1,5.3l11.7,4.9l4.8,2.8l5.5,4l3,4l0.2,3.3l-4.4,5l-0.4,4.2l0.9,2.9l1.5,2.7l4.3,3.6l3.1,1.3l4.2-0.2l1.1,1.9l0.7,7.2l-0.1,2.6l-1.2,2.5l-8.1,9.2l-369.5,0l61.2,0l-7.6,0l1.1,0l-1.4-1.2l1.8-4.3l-1.7-6.3l2.9-4.7l0.2-2.7l3.4-2.5l3.5-0.6l0.6-2.5l3.5-3.2l2.4-0.3l1.2-1.7l-0.3-4.2l0.8-2.5l-0.8-5.8l-1.2-4.5l-1.4-0.5l-0.5-1.4l3.6-2.3l2.4-9.6l5.3-10l4.5-1.8l-1-11.4l0.3-3.1l1.9-4.7l-0.5-2.6l-1.7-0.8l-2.8,0.5l-1.4-1.6l-0.2-4.1l1.6-3.3l-2.1-1.8l-1.4-4.2l0.2-3.6l-1.4-0.9l-0.6-2.8l-1.4-1l-1-4.3l2.5-2.9l-1.8-1.8l-2.6-0.9l-3.1-6.3l1.5-9.8l1.1-0.8l1.9,0.2l1.7-2.3l-0.8-2.8l4.1-10.7l-0.1-1.3l4.7-0.6l2.5-4.2l-0.4-1.3l-2.1-1l0.7-7.2l-2.2-10.3l0.7-1.7l3.7-3.4l3.8-16l3.8-4.9l1.2-0.2l5.9-6.2l3.9-11.1l1.3-1l2.1-5.8l3.1-1.2l1.3,1l1.3-0.2l1.2-1.2l4.3-1.4l0.6-1.2l0-2.2l-6.1-9.5l0.4-2.7l3.6-4.6l-4.2-15.5l1.4-5.8l1-1.7l1.4-0.3l1.1-1.4l-1.9-3.8l-2.1-2.1l1.2-4.8l5.8-5.5l20-8.3l7.8-24l-4.2-4.1l3.1-4l0.5-2.3l5.3-3.3l1.9-4.5l7.8-2.4l3.3-7.2l2.7,0.8l7.3,6.1l17.5,0.2l8.6,2.8l6.3,13.9l1.3-5.2l6.5-12.3l1.3-1l24.3-0.7l4.7,6.7l5.7,3.5l3.5,4l6.4,10.4l9.5,7.7l6.7,3.8l2.7,2.3l1.2,2.3l4.3,2.4l7.5,2.5l8.9,1l4.9,2l15.8,10.8l10.3,5.2l4.6,1.4l3.5,2.7l5.1,0.4l7.1,3.7l5.2,6.2l0.4,3l-4.1,3.8l-3.1,7.2l-4.9,4l-2.1,4.6l0.3,5.8l-3.2,4.5l0.2,0.8l-2.5,1.5l-4.1,4.9l-0.5,1.4l0.8,2.8l9.8-1l23.7,4.6l3.1-0.8l5.8,1.4l2.5-0.6l2,0.4l1.7,1.5l1.5-0.3l1.3-2.3l3.3-2.7l4.8,0.1l3.6,2.1l1.7-0.1l1.8-1.3l1.5-4.8l1.6-0.8l1.5-2.5l6.6-1.8l0.1-1l4.4-4.3l2.4-1.2l3.3-7.9l1.4-17l3.9,1.1l6.4-2.4l5.9,3.4l1.6,6.8l3.4,6.1l0,1.5l-0.9,1.5l-1,9.2l0.8,3.1l-2.7,5.5l-6.1,3.6l-1-0.5l-3.8,3.9l-5.1,0.7l-2.5,1.7l-3.7,0.6l-1.8,3.6l-2.9,1.4l-1.4,2.3l-3.2,0.8l-5.2,4.4l-5.6,2.6l-0.4,1.2l1.2,1.1l0.1,1.9l-4.6-0.3l-0.3,1.7l-7.2,6.8l-3.7,6l-5.5,4.8l-6.7,9.1l-6.5,4.3l-4,5.9Z"/><path class="br" d="M204.5,134l11.8,10.6l6.4-0.4l8.5-4.6l2.6,1.3l1,1.9l-0.8,3.6l1.9,0l2.5-4.2l5.8-5.5l6.4-3.5l1.9,0.1l5.5-4.6l4.1-0.1l2.2-1.7l2-2.1l2.4-7.2l12.9-5.2l0.9-1.6l0.1-4.4l-12-0.9l-2.7-1.2l0.8-3.9l-4.7-12.3l0-8.9l-10.1-9.9l-3.3-5.1l0.6-1l1.5,0l3.3,3.2l8.6,0.3l3.8,4.5l8.3-0.2l2.8,1.1l4.2-1.2l8.3,8.1l2.5,0l2.1-1.8l1.2-8l6.7-3.2l5.8,1.3l7.4-2.3l6-2.1l1.7-2.6l2.5-0.7l2-2l3.9,0.3l2.3-0.7l2.1-3.5l3.7-2.1l2.6-2.7l0.5-2.4l-0.7-2l-0.8-1.9l-1.6-0.9l2.1-0.4l4.3,0.7l2.7-0.2l2.1-1.4l2.3,0.5l3.4,3.6l-1,7.9l-2.6,4.8l7.1,1.4l2.9,2.2l-0.8,3.5l4.2,6.8l-2.9,5.5l-3.9,2.6l0.5,5.5l-3.1,8.3l-0.5,7l2.3,7.6l3,2l0,8.7l2,1.4l0,2.2l3,1.1l6.8,7.5l5.9,1.6l2.3,2.4l1.7-0.1l2.3-1.7l3.9-0.1l0.1-3.6l2.5-1l1.2-2.4l4.5,1.6l2.4-0.1l1.2-2.9l4.1-1.2l4.6-0.1l5.1-5.5l5.5-1.7l2.5,2.1l3.8,1l8-1.5l10.3,2.4l1.3-0.4l0.8-0.7l0.3-3.5l-3.6-4.6l-1.4-0.5l4-6.1l5.1,2.7l7.8-0.8l0.9-1.1l8.2-2.6l2.3,3.5l3.4,0.2l1.4,2.6l5.1,2.8l6.8,2l8.1-5.4l0.8,1l5,1.3l3.9-2l2.4,3.1l5.9,0.5l7-5.6l2.1-3.4l5.2-14.1l3.7-4.3l3.8-7.8l3.7-3.9l1.3-2.8l2.6-1.6l2.4-5.8l1.9-0.1l3,2.1l2.4,3l3.2,9.8l0.6,9.1l1.3,4.7l7,20.1l-0.8,1.8l2.4,0.7l3.4,6.4l6,1l5.2,2.9l1.7,5.6l-0.4,5.9l-8.9,7.6l-10.3,14.2l-4.7,2.2l-3,3.7l-4.1,1.3l-2.7,7.1l-6.7,8.6l-0.4,5.9l-4.5,3.8l-0.3,3.2l-1,1.1l-0.9,0.8l-4.7-0.9l-9.8,4.4l8,0.2l2.5,1.9l5.6-1.3l14.6-8.4l9-6.6l1.3,2.3l-1.8,1.8l1.6,2.5l1.3,6.2l2.4,3.5l-0.2,2.8l6.4,5.9l6.4-3.7l2.7-0.6l6.2,2.2l9.1-4.5l-4.3,12.7l-1,5.6l-1.9,3.1l2.5-1.4l1.5-2.1l5.5-13.6l5-2l6.3-8l2.4,0l3.1,2.9l0.4-2.1l2.1-0.9l-2.3-1.1l-0.3-1l-0.2-1.6l1.5-2.2l-0.9-1.9l3.2-2.5l-0.3-1.8l4.3-3.9l0.3-1.3l1.8-0.7l1.6,1.5l3.5-2.5l2.7,1.4l2.9-1.3l3.1,2.3l-0.9-2l0.4-0.8l3.9,0l3.1,2.3l7.1,0.8l4.4,4.4l4.3,1.4l4.6,0l0.1,1.6l3.8,0.1l1.6,1.9l4.3,1.5l3,2.3l4.2,0.2l2.4,4.9l0.5,3.4l1.1-0.4l2.2-4.4l2.4-1l6.4,6l1.5,0.2l-1.2,1.5l2.8-1.2l2.4,4.7l0.2,2.4l-2.8,4.1l-2.1,0.9l2.1,2.5l1.8-3.4l3.2-1.4l1.2,4.6l-3.1,0.9l0,1.8l-1.5,2.1l-3,14.7l6.4-6.1l2.9-9.5l1.8-1.5l2.7,0.5l-0.1,2.5l-2.5,3.6l0.7,1.3l5.8-5.3l1.5,0.3l3.1-1.8l6.1-0.4l0.5-2l1.2-0.9l9.9,2.1l7.7,4.5l7.7,3.1l5.6,0.3l2.8-1.4l5.3,3.1l3.6,0.9l3.6,0.4l2.8-1.1l7.1-0.4l9-1.7l11.4,1.5l21.3,12.3l7.4,6.1l4.7,1.4l9.6,11.6l5.6,4.4l3.8,4.3l7.3,2.8l2.9,4.7l4.9,0.5l8.1,3.8l9.7-0.1l4-0.9l9.7,1.7l3.5,2.8l3.5,7.3l3.1,14.4l2.5,4.8l1.3,9.1l1.2,5.1l0.9,0.5l0.6,6.1l-1.6,10.6l1,5.2l-3,10.2l-4.2,12.1l-4.2,7l-5.7,7.1l-3.7,3.8l-1.5,0.4l-1.4-0.8l1,2l-0.9,1.8l-3.8,5.3l-3.7,3.4l-3.9,6l-8.3,4.4l-3.8,3.4l-3.5,5.5l-0.7,0.7l-1.3-0.4l0,2.7l-3,4.4l-0.9,0.7l0.8-4.4l-0.9,0.9l-1.8,3.2l0.6,2.4l-1.2,3.7l-5,10.3l-7.4,11.4l-4.9,5.9l-3.6,2.8l-2.2-0.2l-0.6-4.5l-3.7-3.2l-1.2,2.9l-2.4,0.9l1.9,2.7l-1.5,3l-0.1,2.6l-4.3,5.1l-1.4,5.1l1.3-0.6l1,1.3l-1.2,3.3l-0.1,6.6l0.9,1.3l0.9-2.2l0.5,0.6l-2.6,14.5l1.4,13.9l2.6,14.2l-4.1,14.8l-3.1,15.6l-0.3,3.2l1.4,9l-2.8,3.4l-4.7,3.3l-3.6,6.1l-2,8.9l0.9,14.8l-1.9,6.9l-4.9,3.9l-3.1,5.3l-1.4,5.5l-2.2,2l-0.4,3.1l-1.7,3.3l-4.5,5l-4.3,2.8l-3.7,7.7l-2.1,6.2l1,11.5l-2.7,2l-13.1,5.2l-6.1,6.3l-0.2,3.6l1,1.2l-2.2,3.7l-20.6,0.4l-2.7-1.5l-0.4-1.2l0.7-1.8l-0.4-1.1l-1.5,0l-1.7,0.5l-0.3,1.1l1.1,3.4l-0.7,1.2l-15.1,2.6l-1.7-1.1l6.7-1.1l-0.6-1l-3.7-1.3l-4.1,0.8l-2.2,1.6l-4.9-0.2l-6.1,1.2l-1,1.2l0.2,2.3l2.3,1.6l-2.1,1.4l-6.4,1l-5.9,4.6l-2.5,0.5l-2.2,2l-0.9,2.7l-4.5-0.9l-6.9,0.8l-20.1,10.2l-6,5.9l-16.6,11.7l-2.5,0.9l1.8,0.8l-0.5,2.3l-6.1,5.8l-0.9-0.3l1.3-2.2l-4.9-0.9l-1.2,0.9l0.7,2.2l-1.1,0.9l-3.8-0.2l-1.9-1.5l0.9,2.8l4.1,0.7l2.4,1.8l-3.3,5l-2.7,0.7l-0.3,0.7l1.5,0l0.9,1.4l-1,5.7l-2.9,2l2.2,3.2l-0.6,6.9l2.7,11.4l-0.9,1.6l0.5,2.5l-1.5,4.3l0.8,6.2l-0.3,5.9l-1.7,5.4l-2.3,3.1l-0.1,3l-10.5,6.9l-10.7,11.4l-6.4,10.2l-6,14.5l-7.1,10.9l-6.8,8.4l-5.2,5.1l-14.4,9.8l-5.5,5l-0.6-1.2l0.1-5.4l1.5-0.4l2.3,1.2l2-1.6l2.8-0.5l5.2-5.1l3.9-1.8l2.2-3.2l0.3-5.1l1.3-0.9l2.8,0.3l0.9-4.4l3.8-2.1l1.8-2.6l-0.6-6.4l3,0.3l0.4-4.3l-1.8-0.4l-6.4,3.2l-2.1-0.1l-0.4-2.6l-3.1-1.1l-1.6-3.5l-1-0.6l0.3,4.9l2.8,2.8l-2,2.3l-0.9,2.9l0.1,3.7l-1.7-1.8l-0.4,4l-1.9,1.6l-0.1,3.2l-0.9,1.2l-10.5,6.5l-1.2,5l-2.1,2.2l-1.6,4.4l1.5,6.6l-4.8,6.3l-3.8,10.1l-3.2,6.1l-6,6.1l-10.1,7.9l-3.6-2l0-11.2l1.1-2.4l8-7.7l-2.4-2.6l-2.9-1l-5.4-4.1l-3.6-8.1l-3.5-2.4l-6.7-2.3l-3.4-2.5l-4.9-6l-6.9-2.2l-3.1-2.6l-1.2,0.8l-1.9-0.8l-1.8-1.3l-2.5-4.1l-5.3-4.6l-4.6,4.4l-4.4,0.9l0.1-5.6l-1-1.4l-3-3.4l-14.7-12.1l-6.4,0.9l-2.1,3.2l-7.6-0.5l-1.3-1.7l4.6-3.6l4-5.9l6.5-4.3l6.7-9.1l5.5-4.8l3.7-6l7.2-6.8l0.3-1.7l4.6,0.3l-0.1-1.9l-1.2-1.1l0.4-1.2l5.6-2.6l5.2-4.4l3.2-0.8l1.4-2.3l2.9-1.4l1.8-3.6l3.7-0.6l2.5-1.7l5.1-0.7l3.8-3.9l1,0.5l6.1-3.6l2.7-5.5l-0.8-3.1l1.9-12.2l-3.4-6.1l-1.6-6.8l-2.7-2.1l-3.2-1.3l-6.4,2.4l-3.9-1.1l0.1-3.4l3.9-7.2l-0.4-1.3l3.9-17.6l-0.8-4.1l1.7-1.9l-8.6-5.4l-8,3.7l-4.8,1l-3.8-0.6l-1.1-0.9l-1-6.2l-1.8-2.4l0.5-3.9l-3-12.2l0.8-5l-2-1.9l-2.1-5.5l-1.1-1.1l-8.9-1l-3.4-3.9l-1.1-0.4l-1.7,0.6l-2.5,3l-6.8,0.9l-6.8-1.8l-2,0.5l-5.4-0.8l-3.4-1.9l-3.5,0.8l-1.7-0.6l-0.7-1.4l1.2-3.2l0.3-4.9l-0.6-4.7l1.6-3.3l-0.4-1.2l1.4-3.9l0-3.1l-1.6-2.9l-0.3-4.3l-1.5-0.8l-0.5-4.4l-2.7-4l-0.8-3l6.7-4.3l-6.1-5.4l7.4-15.4l1.9-0.9l-0.3-2.9l-1.2-0.1l4.7-14.7l1.8-1.5l-2.1-2.2l-5.5-14.1l-3.5,0l-9.1-6.5l-1.8-12.3l2.8-4.9l0.1-4.8l-4.3,1l-36.7-1.4l-1.5-18.3l-7.6-8.8l6.9-0.2l-0.5-10.9l-4-10.1l1.6-3.9l-2.3-5.3l-12.8-6.9l-9.7,1.2l-6.3-0.4l-6.8-6.6l-0.5-1.9l-5.3-0.6l-7.5-3.2l-1.7,0l-5.6-4.4l-1.2-3.2l-1.1-0.4l-3,1.3l-2.1-0.6l-7.7-4.7l-2.2-0.2l-3.4,1.4l-10.8-2.1l-2.1-4.4l-7.1-5.1l-3.6-1.3l-2.2-5.4l-2.2,0.2l0.3-2.4l-3.3-4.8l-1.5-4.5l1.4-5.1l-2.7-12l3-5.9l0.3-2.5l-0.2-6.4l-2-3.7l-2.1,0.5l-1.5,1.5l-1.8,0.3l-1.5-1l-4.9,0.4l-14.6,2.7l-3.5,1.7l-8.5,6.8l-6.9,2.8l-3.7,2.7l-3.1,4.1l-2.5-0.4l-5.3,0.9l-5.4,6.3l-7,3.1l-2.3,0.3l-2.7-2.5l-8.6-1.3l-16.4-0.6l-8.5,3.1l-4.3-2.7l-2.4,1.4l0.1-27.5l1.5-2.8l-0.5-3.7l1.1-2.5l-2.1,1l-13.5,11.3l-8.3,0.9l-12.8,0l0.2-3.7l-2-1.6l-1.3-5.1l-1.4-1.1l-9.7-2.3l-8.9,0l5.4-6.7l-0.1-3l-5.1-6.3l-2.2-1.5l-1.3-2l0-2.1l-4.3-3.1l-2.1-6.3l-3-3.2l1.3-3.5l-2.3-1.1l-4-4.2l0.9-1.1l-0.1-3l5.5-1.6l-1.9-5.3l1-4.1l5.8-5.2l3.9-2.5l1.9-0.2l2.4-2.3l0-2.8l-2.3-5.7l5.8-10.8l2.1-11.9l4.2-1.2l7.7-6.6l11.4-6.5l19.5-3.6l3.9-4.1l8.9-0.5l3.7,3.5l2.5-0.4l1.7,1.1l1.8-0.7l12.8-72.1l-1.1-4.5l-2.1-1.9l-1.5-3.6l0.4-2.9l-0.9-3l-6.5-4.4l-3.3-4.2l0.3-16.6l5.6-0.7l7.5-2.8l4.2,2.3l2.9-0.7l-0.2-4.7l-3.3-4.4l-12.1-0.2l0.1-15l6.8-1.5l5,1.2l25.6,0l-1.8-2.9l1.4-3.3l1.5,0.7l2.1,3.9l2.2,0.9l2.7-0.9l5.8-6.6l3.5-1l6.3,9.6l0.8,12ZM591,167.7l11.4-1.5l11.9,1.6l4.4,1.5l0.3,1.3l-2.7,7.2l-1.5,0.5l0.6,2.7l-0.7,2.1l-3,5l-3.1,2.8l0.8,2.3l-0.6,1.4l-2.2,2.2l-2.4,0.7l-3-2.3l-1.4,4.3l-2.5-0.1l-3.6-1.9l-0.4,2.7l-1.4,1.9l-4.9,1.8l-5.8-2l-1,1.1l-8.9,0.9l-2.1-2.1l-3.6-10.6l0.7-2.7l3,0.5l0.4-1l-0.3-0.7l-2.7,0.1l-1.6-1.6l-0.3-2.4l0.6-6l1.1-1.5l0.6-5l1.1-2.2l4.1-2.6l4.8-1ZM714.2,699.3l0.7,0.6l-5,1l-0.9-0.9l2.7-2.3ZM614.4,774.9l-1.9-2.6l2.9-2.7l0.9,1.1ZM688.9,716.6l-0.1,1.2l-0.9-0.6l-2.5,0.5l-0.8-0.9l3.3-3.9l1.6,2.2ZM705.9,230.6l-2.2,2.3l0.7-5.9l1.9-1.6ZM834.9,466.3l-0.9,0.5l-0.1-1.5l2.3-1.9l0.4-2.2l1.5,2.6ZM831.3,475l-0.8,1.3l-0.8-0.2l-1-1.8l0.9-1.1l1.6,0.1ZM697.3,193l-1.9,1.7l-1.2-0.5l1-2.4l2,0.2ZM588.5,156.2l0.9,1.2l-3.1,4.8l-1.8,0.7l-1.9,0.2l-2.5-1.5l-5.1-0.2l-0.1-2.1l1.6-2.3l3.3,0.1l5.6-1.8ZM575.9,117.4l-2.2,1.1l-1.3-0.4l-1.2-2.8l0.4-2.3l1.7-0.7l1.7,0.4ZM568,165.5l-6.1,4.5l-2.5-2.4l0.9-2.8l3.5-1.2l3.9,0.1ZM595.1,165l-5.9,0.7l-2.7-1.1l2.6-2.6l4.7-1.5l2.3,0.6l0.6,1.3ZM573.1,159.2l-0.4,3.4l-4-1.5l0.3-3.5l3.5-2.8l0.6-5.4l1.2-0.7l0.9,7.7ZM579.2,153.3l-2.4,0.8l-0.5-3.7l0.7-1.6l4.3-1.2l0.4,2.7ZM541.6,195.7l-2.4,0.4l3.1-5.8l2.7-2.7l0-5.4l3-4.7l2.7-2l3.8-0.5l2.1,2.9l-2.6,8.2l-8.1,7.4ZM616.6,806.6l-1.6,1l0.3-5.5l2.9-4l0.8,1.2l-2.7,5.9Z"/></g>
<text class="ctry" x="594" y="336" text-anchor="middle">BRASILIEN</text>
<text class="ctry" x="359" y="882" text-anchor="middle">ARGENTINIEN</text>
<text class="ctry" x="385" y="687" text-anchor="middle">PARAGUAY</text>
<text class="ctry" x="235" y="552" text-anchor="middle">BOLIVIEN</text>
<text class="ctry" x="40" y="371" text-anchor="middle">PERU</text>
<text class="ctry" x="45" y="93" text-anchor="middle">KOLUMBIEN</text>
<text class="ctry" x="213" y="23" text-anchor="middle">VENEZUELA</text>
<text class="ctry" x="975" y="441" text-anchor="middle">ATLANTIK</text>
<rect class="frame" x="649.9" y="683.2" width="93.0" height="40.6"/>
<path class="lead" d="M742.9,683.2 L1130,786"/>
<path class="lead" d="M649.9,723.8 L636,1013"/>
<path class="fl" data-d="2026-12-27" marker-end="url(#arr)" d="M1123.0,40.0 Q974.3,423.6 667.8,698.0"/>
<text class="tag ht" x="1119" y="30" text-anchor="end">27.12. 19:00 MUC → FCO → GRU</text>
<text class="sub ht" x="1119" y="50" text-anchor="end">☾ über Rom · ca. 15,5 h · an 28.12. 06:25</text>
<path class="fl" data-d="2027-01-20" marker-end="url(#arr)" d="M741.9,685.6 Q971.0,530.9 1123.0,300.0"/>
<text class="tag ht" x="1119" y="282" text-anchor="end">20.01. 15:35 GIG → FCO → MUC</text>
<text class="sub ht" x="1119" y="262" text-anchor="end">☾ Heimflug über Rom · ca. 14,5 h · an 21.01. 10:10</text>
<path class="fl flB" data-d="2027-01-06" marker-end="url(#arrB)" d="M1123.0,600.0 Q939.7,666.4 745.9,687.6"/>
<text class="tag ht tagB" x="1119" y="588" text-anchor="end">06.01. MUC → FRA → GIG</text>
<text class="sub ht" x="1119" y="570" text-anchor="end">☾ nur Daijo &amp; Greisel · an 06:10</text>
<path class="fl open" data-d="2027-01-06" marker-end="url(#arrO)" d="M733.9,691.6 Q593.1,667.2 480.0,754.5"/>
<path class="fl open" data-d="2027-01-09" marker-end="url(#arrO)" d="M480.0,754.5 Q502.2,475.1 358.1,234.8"/>
<path class="fl open" data-d="2027-01-14" marker-end="url(#arrO)" d="M358.1,234.8 Q482.1,515.8 733.9,691.6"/>
<text class="tag ht" x="557" y="785" text-anchor="middle">06.01. GIG → IGU</text>
<text class="sub ht" x="557" y="802" text-anchor="middle">ca. 2 h · alle sechs</text>
<text class="tag" x="301" y="505" text-anchor="middle">09.01. IGU → MAO</text>
<text class="sub" x="301" y="523" text-anchor="middle">mit Umstieg · ca. 6–8 h</text>
<text class="tag" x="616" y="423" text-anchor="middle">14.01. 01:45 MAO → GIG</text>
<text class="sub" x="616" y="441" text-anchor="middle">☾ Nachtflug · ca. 4 h</text>
<g class="stopg" data-from="2027-01-06" data-to="2027-01-08" data-stop="iguacu" role="button" tabindex="0" aria-label="Foz do Iguaçu: Infos">
<circle class="hit" cx="480.0" cy="754.5" r="31"/>
<circle class="halo" cx="480.0" cy="754.5" r="24"/>
<circle class="dot" cx="480.0" cy="754.5" r="15"/>
<text class="num" x="480.0" y="754.5">3</text>
<text class="lbl" x="460.0" y="756.5" text-anchor="end">Foz do Iguaçu</text>
<text class="sub" x="460.0" y="774.5" text-anchor="end">06.–09.01. · 3 Nächte · Wasserfälle</text>
<text class="tag" x="460.0" y="792.5" text-anchor="end">Argentinien-Seite: Pass mit!</text>
</g>
<g class="stopg" data-from="2027-01-09" data-to="2027-01-13" data-stop="manaus" role="button" tabindex="0" aria-label="Manaus &amp; Amazonas: Infos">
<circle class="hit" cx="358.1" cy="234.8" r="31"/>
<circle class="halo" cx="358.1" cy="234.8" r="24"/>
<circle class="dot" cx="358.1" cy="234.8" r="15"/>
<text class="num" x="358.1" y="234.8">4</text>
<text class="lbl" x="378.1" y="232.8" text-anchor="start">Manaus &amp; Amazonas</text>
<text class="sub" x="378.1" y="250.8" text-anchor="start">09.–14.01. · 4 Nächte · Dschungel-Lodge</text>
<text class="tag" x="378.1" y="268.8" text-anchor="start">Uhrzeit: Rio −1 h</text>
</g>
<rect class="framebg" x="636" y="786" width="494" height="227"/>
<g clip-path="url(#clipIn)"><path class="land" d=""/><path class="br" d="M628,1021l0-243l510,0l0,76.9l0-6.2l0,4.5l-9.5,1.1l-8.3-0.7l-11.8,0.3l-3-2.7l-2.1-1.1l-1.8,1.1l-3.8-3l-1.1-1.4l3.2,0.9l1.4-1.2l0.1-1.1l-1-0.9l-3.6-1l0.4-1.5l1.9-2.8l1-3.1l8-7.9l-2.2,0.2l-0.9-0.5l-0.1-1l0.6-1.4l2.6-1.1l1.2-1.4l0.4-4.1l-0.8-4.1l-1.5-0.4l-3,0.3l-1.1-0.8l-3.4,3.7l-1.3,0.5l-3.2-0.5l-1.2,0.3l-7.8,4.9l-4.6,0.4l-1.7,1.3l-0.6,2.7l0.5,2.7l3.6,7.1l0.8,0l1.6-1.8l0.6,2.2l1.9,1.3l-1.6,1l6,4l0,5.7l1.3-0.8l-0.1,2.3l-2.2,2.4l-5.9,3.3l-27,3l-5.8,1.6l-5.5,2.4l-2.2,2.4l-0.7-0.2l-1.6-2.2l-4.8-0.9l-29.9,3.6l-5.1,0l-2.4,0.3l-4.1,2.6l-2.4,0.6l-1.7-0.8l-0.6-2.7l0.8-2.7l1.7-1l4.5,0.1l4,1.8l1.3-0.1l1.6-4.4l2.7,2.4l4.4,1l9.6,0.2l9.8-1.6l5.2-1.7l2.6-2.1l-5.1-1.1l-2.1-1.4l-0.9-1.3l-4.2-0.5l-3.2-4.5l-1.8-0.7l-6.4-0.6l-0.8-2.6l-4.1,0.1l-2.4-0.6l1.6-0.8l0-0.9l-6.1,2.6l-7.7,1.4l-4.6,2.1l-3.1,4.1l-2.2,0.4l1.2-3.9l-0.3-1.1l-1.7,0.5l-2.8,6.2l-4.2,4.5l-1.5,0.9l-2.9,0l-4.1,2.6l-0.5-0.1l-0.7-1.9l-2.8,2l-2.7-0.9l0.1-5.5l-1-0.5l-2.5-0.1l-2.2,2l-1.1,0.3l-0.4-2.3l-3.3,2.6l-2.7-2.1l-0.2-1.6l1.6-1.2l3.5-0.9l0-1.2l-0.6-1.8l-1.5-1.6l1.5-1.1l-2.3-0.9l-2.6,0l0.8,2.1l-2.4,3.3l-1.6-2.8l-1.7,1l-1.5-1.3l-1.4,1.4l-1.9,4.4l0.4,1.9l-2.5,1.7l-9.2,2l-8.3,3.9l0.7-2.5l-3.8-0.1l-3,1l-2.1,2.1l-3.3,6.3l0.9,2.5l-2.3,6.2l-0.2,1.5l0.7,3.6l2.3-0.4l5.2-3.2l2.2,1.1l-5.5,4.5l-0.8,2.4l2.8-2.3l1.9-0.4l1.8,1l-2.8,3.5l-0.3,2.9l6-6.5l5.3-0.9l-2.4,2.7l2.2,1.9l5.6,1.3l1.1,3l-2.6-0.7l-2.1,1.6l-2.6,4.4l-2.5,2.1l-3.9-1.4l-1.8,0.3l-1.8-0.8l-3.3-0.1l-3.5,0.6l-2.8,1.1l-0.6,1.9l-1.8,0.7l-4.1,1l-2.1-1l-3.2,1.8l-2.1,0l-1.7-3.1l-1.1-0.4l-3.6,0.9l0.7-3.1l-3.2,1l-6,4.2l-1.4,2.3l-3.2,0.8l-2.4,1.4l-0.9,0l-0.9-1.4l-0.9,3l1.4,1.3l2.1,1.1l1.6,1.8l-3.2,0.2l-1.8,1.4l-2.4,5.5l-1.2-2.3l-1.4-0.8l-0.7,0.8l0.9,2.3l-2.7-1l-4.1-2.6l-0.5,1.4l0.8,3.9l-2.3,0.6l-4.3-1.2l-1.6,2.4l1.6,3.8l-6.1,2.4l-1.5-0.4l-1.7-1.8l-1.3-0.4l-1.4,0.5l-3.1,3.1l-2.5,0.8l-2.3,1.6l-2.4,1l-3-0.9l-1.8,3.2l-0.6,2.9l1.2,6l2.8,1.3l0.2,1.7l-1,2.9l1.6,3.5l-0.2,2.5l-1.4,2.3l-2.4,1.3l-1.5,0.1l-3-1l-5.3,1.8l-2.4-1l-2.7-3.5l-2.7-0.8l-5.2,0.8l-1.7-1.7l-2.4,0l-7.7-2.4l-7.8-0.3l-4.9-1.8l-4.8,0.2l-10.9,2.7l-4,1.6l-3.4,2.7l-1.1,2.3l-4-0.6l-2.3,0.5l-6.7,3.1l-0.3-0.9l-0.9,0l-1.6,3.4l-2.3,2.5l-3.1,1.9l-3.6,1l0,1l4.5-0.6l1.8-1.1l4.4-4.7l1.6-0.8l2.4,0l-5.7,7.2l-1,4.5l0.2,3.5l-2.4,1.7l-1.2-0.2l-1.3-1.8l-1.6,0.3l-3.8,1.8l-1.7,1.9l-2.4,1.4l-3.5-0.6l0.8-2l3-1.1l1-1.4l-0.1-1.9l-1.8-2.7l-0.8-2.8l-2.3-2.1l-4.7-1l-0.7-0.9l0.7-2l-3.2-0.6l-0.5,1.6l0.2,2.3l-1.1,1.1l-1.5,0.5l0,2.3l-5.3-1l0.5,1.6l2.7,1.6l1.7,4l4.3,0.4l0.6,0.9l-0.5,4.2l-1.2,0.7l-0.7-1.8l-1.8-0.9l-7.4,4l-14.8,6.4l-17.8,11.3l-23.1,11.4ZM716,977.2l1,0.2l0.3,1.6l3,5l0,1.6l-5.9-2.8l-1.7,0.1l-1.2,1.5l-4.1-0.9l-2.4-3.6l1.6-0.7l1.6,0.7l0.6-1.5l-0.6-2ZM848.6,974.6l-1.5,0.4l1,5.2l-2.8,2.4l-2.4-0.9l-3.4-6.4l-1.6,1.1l-0.7-1l-4.3,2l-4.7,1.3l-4.3-0.3l-3.1-3l-0.6-2.7l0.6-1.9l3.3-2.4l7.7-7.6l1.2-2.2l0.9-4l1.5-3.4l2-0.5l2.5,0.8l6,4.4l1,1.4l-0.8,9.3l-3.7-0.7l-0.6,3.9l1.9,3.8l4-0.8ZM981.1,876.5l2.2,2.7l-3,1.3l-1.3-1.8l-2,0l-1.2,0.9l-1.6-0.9l-2.1,2l-1.6,0.7l-6.1,0.9l-4.2-2.4l-1.9-0.3l-2.2,2.4l-1.5,3.8l-0.5,0.1l-1.7-2.9l0.5-2.5l-2.7-0.2l-0.8-1.7l5.2-2.5l3.2-3.6l1.5,0.7l1.6-1.1l2.7-3.1l0.8-2.7l0.7-0.2l0.9,1.1l4.9,1.8l0,0.8l-2.4,1l2.4,1.7l1.9-1l1.8,2l1.6,0.7l2.1-2.6l1.4,0.5l-0.7,2.1Z"/>
<path class="gr" data-d="2026-12-28" marker-end="url(#arr)" d="M699.1,912.9 Q729.1,952.9 721.3,971.4"/>
<path class="fl open" data-d="2026-12-31" marker-end="url(#arrO)" d="M676.5,938.8 Q878.4,843.7 1100.3,867.2"/>
<path class="gr" data-d="2027-01-14" marker-end="url(#arr)" d="M1080.3,824.2 Q1015.0,868.5 921.6,875.7"/>
<path class="bt" data-d="2027-01-16" marker-end="url(#arr)" d="M920.6,891.7 Q940.7,915.7 960.9,881.4"/>
<path class="bt" data-d="2027-01-20" d="M976.9,863.4 Q968.9,864.5 961.0,860.5"/>
<path class="gr" data-d="2027-01-20" marker-end="url(#arr)" d="M961.0,856.5 Q1017.7,862.5 1074.3,829.2"/>
</g>
<g class="apg" data-ap="GRU" role="button" tabindex="0" aria-label="Flughafen GRU"><circle class="hit" cx="699.1" cy="912.9" r="14"/><circle class="dot2" cx="699.1" cy="912.9" r="5"/><text class="tag" x="691.1" y="904.9" text-anchor="end">GRU</text></g>
<g class="apg" data-ap="CGH" role="button" tabindex="0" aria-label="Flughafen CGH"><circle class="hit" cx="676.5" cy="938.8" r="14"/><circle class="dot2" cx="676.5" cy="938.8" r="5"/><text class="tag" x="668.5" y="956.8" text-anchor="end">CGH</text></g>
<text class="tag" x="791" y="810" text-anchor="middle">31.12. CGH → SDU · ca. 1 h</text>
<g class="stopg" data-from="2026-12-28" data-to="2026-12-30" data-stop="guaruja" role="button" tabindex="0" aria-label="Guarujá: Infos">
<circle class="hit" cx="725.3" cy="985.4" r="29"/>
<circle class="halo" cx="725.3" cy="985.4" r="22"/>
<circle class="dot" cx="725.3" cy="985.4" r="13"/>
<text class="num" x="725.3" y="985.4">1</text>
<text class="lbl" x="745.3" y="989.4" text-anchor="start">Guarujá</text>
<text class="sub" x="745.3" y="1007.4" text-anchor="start">28.–31.12.</text>
</g>
<g class="stopg" data-from="2026-12-31" data-to="2027-01-05" data-stop="rio" role="button" tabindex="0" aria-label="Rio de Janeiro: Infos">
<circle class="hit" cx="1088.3" cy="848.2" r="29"/>
<circle class="halo" cx="1088.3" cy="848.2" r="22"/>
<circle class="dot" cx="1088.3" cy="848.2" r="13"/>
<text class="num" x="1088.3" y="848.2">2</text>
<text class="lbl" x="1048.3" y="806.2" text-anchor="end">Rio de Janeiro</text>
<text class="sub" x="1048.3" y="824.2" text-anchor="end">31.12.–06.01.</text>
</g>
<g class="stopg" data-from="2027-01-14" data-to="2027-01-15" data-stop="paraty" role="button" tabindex="0" aria-label="Paraty: Infos">
<circle class="hit" cx="908.6" cy="885.7" r="29"/>
<circle class="halo" cx="908.6" cy="885.7" r="22"/>
<circle class="dot" cx="908.6" cy="885.7" r="13"/>
<text class="num" x="908.6" y="885.7">5</text>
<text class="lbl" x="890.6" y="887.7" text-anchor="end">Paraty</text>
<text class="sub" x="890.6" y="905.7" text-anchor="end">14.–16.01.</text>
</g>
<g class="stopg" data-from="2027-01-16" data-to="2027-01-21" data-stop="ilha" role="button" tabindex="0" aria-label="Ilha Grande: Infos">
<circle class="hit" cx="972.9" cy="875.4" r="29"/>
<circle class="halo" cx="972.9" cy="875.4" r="22"/>
<circle class="dot" cx="972.9" cy="875.4" r="13"/>
<text class="num" x="972.9" y="875.4">6</text>
<text class="lbl" x="964.9" y="913.4" text-anchor="start">Ilha Grande</text>
<text class="sub" x="964.9" y="931.4" text-anchor="start">16.–20./21.01.</text>
</g>
<g class="apg" data-ap="GIG" role="button" tabindex="0" aria-label="Flughafen GIG"><circle class="hit" cx="1080.3" cy="824.2" r="12"/><circle class="dot2" cx="1080.3" cy="824.2" r="4.5"/><text class="tag ht" x="1088.3" y="828.2" text-anchor="start">GIG</text></g>
<g class="apg" data-ap="SDU" role="button" tabindex="0" aria-label="Flughafen SDU"><circle class="hit" cx="1106.3" cy="865.2" r="12"/><circle class="dot2" cx="1106.3" cy="865.2" r="4.5"/><text class="tag ht" x="1106.3" y="882.2" text-anchor="middle">SDU</text></g>
<text class="sub" x="1120" y="959.0" text-anchor="end">GRU → Guarujá · Uber 1,5–2 h</text>
<text class="sub" x="1120" y="973.5" text-anchor="end">GIG → Paraty · Uber ca. 4 h</text>
<text class="sub" x="1120" y="988.0" text-anchor="end">Paraty → Ilha Grande · Uber + Boot</text>
<text class="sub" x="1120" y="1002.5" text-anchor="end">Ilha Grande → GIG · Boot + Uber ca. 3 h</text>
<text class="tag" x="1120" y="943" text-anchor="end">FAHRZEITEN</text>
<g id="map-pins"></g>
<rect class="legbg" x="24" y="807" width="250" height="196" rx="6"/>
<path class="fl" d="M40,831 h46"/><text class="legtxt" x="98" y="836">Flug, gebucht</text>
<path class="fl open" d="M40,861 h46"/><text class="legtxt" x="98" y="866">Flug, noch nicht gebucht</text>
<path class="fl flB" d="M40,891 h46"/><text class="legtxt" x="98" y="896">nur Daijo &amp; Greisel</text>
<path class="gr" d="M40,921 h46"/><text class="legtxt" x="98" y="926">Straße (Uber / Transfer)</text>
<path class="bt" d="M40,951 h46"/><text class="legtxt" x="98" y="956">Boot / Fähre</text>
<text class="legtxt" x="54" y="986" text-anchor="middle">☾</text><text class="legtxt" x="98" y="986">Nachtflug</text>
</svg>